# xmcd
#
# Track frame offsets: 
#        150
#        2015
#        15105
#        27765
#        41575
#        58675
#        73185
#        84612
#        99950
#        117255
#        128662
#        142305
#
# Disc length: 2079 seconds
#
# Revision: 0
# Processed by: cddbd v1.5.2PL0 Copyright (c) Steve Scherf et al.
# Submitted via: ExactAudioCopy v0.95b4
#
DISCID=96081d0c
DTITLE=Red Star Belgrade - Where The Sun Doesn't Shine
DYEAR=1996
DGENRE=Alternative
TTITLE0=Saddest Girl (Intro)
TTITLE1=Saddest Girl
TTITLE2=Mercy
TTITLE3=Stinking Apparition
TTITLE4=Under My Wheels
TTITLE5=Age Of Regret
TTITLE6=John Candy's Lament
TTITLE7=Sour Juice
TTITLE8=1984
TTITLE9=These Are The Days
TTITLE10=Lord's Prayer
TTITLE11=Hypocrite
EXTD=
EXTT0=
EXTT1=
EXTT2=
EXTT3=
EXTT4=
EXTT5=
EXTT6=
EXTT7=
EXTT8=
EXTT9=
EXTT10=
EXTT11=
PLAYORDER=
